<mxfile host="app.diagrams.net" modified="2022-09-29T02:49:46.055Z" agent="5.0 (Windows NT 10.0; Win64; x64) AppleWebKit/537.36 (KHTML, like Gecko) Chrome/105.0.0.0 Safari/537.36 Edg/105.0.1343.53" etag="srBDaDU1z0e2k03ACA1C" version="20.3.7" type="github">
  <diagram id="Z-lftp1KOIkivCEh9EIT" name="第 1 页">
    <mxGraphModel dx="1037" dy="579" grid="1" gridSize="10" guides="1" tooltips="1" connect="1" arrows="1" fold="1" page="1" pageScale="1" pageWidth="827" pageHeight="1169" math="0" shadow="0">
      <root>
        <mxCell id="0" />
        <mxCell id="1" parent="0" />
        <mxCell id="bi_qZJG_677tl6Z2dT7U-4" value="Test" style="rounded=0;whiteSpace=wrap;html=1;" parent="1" vertex="1">
          <mxGeometry x="350" y="220" width="200" height="80" as="geometry" />
        </mxCell>
        <mxCell id="JcJQuTmCnH3k2LRmqqZP-2" value="" style="shape=lineEllipse;perimeter=ellipsePerimeter;whiteSpace=wrap;html=1;backgroundOutline=1;" vertex="1" parent="1">
          <mxGeometry x="270" y="220" width="80" height="80" as="geometry" />
        </mxCell>
        <mxCell id="JcJQuTmCnH3k2LRmqqZP-3" value="" style="shape=offPageConnector;whiteSpace=wrap;html=1;size=0.5;direction=north;" vertex="1" parent="1">
          <mxGeometry x="550" y="220" width="80" height="80" as="geometry" />
        </mxCell>
      </root>
    </mxGraphModel>
  </diagram>
</mxfile>
